<!-- <svg xmlns="http://www.w3.org/2000/svg" version="1.1" xmlns:xlink="http://www.w3.org/1999/xlink" xmlns:svgjs="http://svgjs.dev/svgjs" width="1440" height="560" preserveAspectRatio="none" viewBox="0 0 1440 560">
    <g mask="url(&quot;#SvgjsMask1005&quot;)" fill="none">
        <rect width="1440" height="560" x="0" y="0" fill="rgba(255, 255, 255, 1)"></rect>
        <path d="M992.5608719157219 157.67302235353378L1081.4599662913788 263.61883745409455 1187.4057813919396 174.71974307843763 1098.5066870162827 68.77392797787684z" fill="rgba(28, 199, 168, 0.4)" class="triangle-float3"></path>
        <path d="M431.6040234657109 240.1982734973003L424.0399699601831 132.02726876683573 265.56548961725014 197.4588513903597z" fill="rgba(28, 199, 168, 0.4)" class="triangle-float1"></path>
        <path d="M1099.8341484393923-9.272663109435612L970.2053076726802-110.54981318119577 868.92815760092 19.07902758551633 998.5569983676321 120.35617765727649z" fill="rgba(28, 199, 168, 0.4)" class="triangle-float2"></path>
        <path d="M555.0914814631996 551.6917360472469L635.3341250106953 614.3841600838073 698.0265490472557 534.1415165363115 617.78390549976 471.4490924997512z" fill="rgba(28, 199, 168, 0.4)" class="triangle-float1"></path>
        <path d="M600.8001780920912 160.17533867424976L623.7627348293117 305.155216054687 768.7426122097489 282.1926593174665 745.7800554725284 137.21278193702926z" fill="rgba(28, 199, 168, 0.4)" class="triangle-float1"></path>
        <path d="M248.79,386.732C275.587,388.226,305.21,382.488,318.725,359.3C332.305,336.001,323.114,307.104,308.355,284.533C295.117,264.288,272.97,253.022,248.79,252.347C223.214,251.633,195.961,258.877,183.172,281.038C170.386,303.193,177.679,330.457,191.171,352.189C203.83,372.58,224.826,385.396,248.79,386.732" fill="rgba(28, 199, 168, 0.4)" class="triangle-float2"></path>
    </g>
    <defs>
        <mask id="SvgjsMask1005">
            <rect width="1440" height="560" fill="#ffffff"></rect>
        </mask>
        <style>
            @keyframes float1 {
                    0%{transform: translate(0, 0)}
                    50%{transform: translate(-10px, 0)}
                    100%{transform: translate(0, 0)}
                }

                .triangle-float1 {
                    animation: float1 5s infinite;
                }

                @keyframes float2 {
                    0%{transform: translate(0, 0)}
                    50%{transform: translate(-5px, -5px)}
                    100%{transform: translate(0, 0)}
                }

                .triangle-float2 {
                    animation: float2 4s infinite;
                }

                @keyframes float3 {
                    0%{transform: translate(0, 0)}
                    50%{transform: translate(0, -10px)}
                    100%{transform: translate(0, 0)}
                }

                .triangle-float3 {
                    animation: float3 6s infinite;
                }
        </style>
    </defs>
</svg> -->

<svg xmlns="http://www.w3.org/2000/svg" version="1.1" xmlns:xlink="http://www.w3.org/1999/xlink" xmlns:svgjs="http://svgjs.dev/svgjs" width="1440" height="560" preserveAspectRatio="none" viewBox="0 0 1440 560">
    <g mask="url(&quot;#SvgjsMask1007&quot;)" fill="none">
        <rect width="1440" height="560" x="0" y="0" fill="rgba(255, 255, 255, 1)"></rect>
        <path d="M1169.084,361.898C1215.211,363.962,1261.965,344.472,1284.8,304.341C1307.428,264.574,1299.499,214.99,1274.468,176.69C1251.72,141.884,1210.662,127.783,1169.084,127.29C1126.437,126.784,1081,137.432,1059.282,174.139C1037.257,211.364,1048.183,257.392,1070.018,294.729C1091.605,331.641,1126.366,359.986,1169.084,361.898" fill="rgba(152, 255, 224, 0.41)" class="triangle-float2"></path>
        <path d="M32.90302001544849 130.93143920029195L128.77779056101852 190.84064493555775 188.6869962962843 94.9658743899877 92.81222575071428 35.05666865472192z" fill="rgba(152, 255, 224, 0.41)" class="triangle-float2"></path>
        <path d="M364.39801248285994-69.00366283228291L285.3147074962692 67.97263943495744 422.2910097635096 147.0559444215482 501.3743147501003 10.079642154307834z" fill="rgba(152, 255, 224, 0.41)" class="triangle-float1"></path>
        <path d="M335.083,745.307C383.172,742.497,429.788,725.693,455.728,685.103C483.813,641.155,492.106,585.011,466.591,539.522C440.594,493.173,388.215,471.02,335.083,470.013C279.904,468.968,224.418,487.898,194.651,534.371C162.552,584.486,154.286,651.25,187.267,700.79C217.831,746.699,280.025,748.524,335.083,745.307" fill="rgba(152, 255, 224, 0.41)" class="triangle-float2"></path>
        <path d="M1155.919,509.728C1185.5,509.569,1205.063,482.216,1219.041,456.146C1232.058,431.868,1239.738,403.117,1225.828,379.34C1212.025,355.746,1183.244,347.512,1155.919,348.247C1130.019,348.943,1105.434,360.64,1092.231,382.932C1078.776,405.649,1079.755,433.239,1091.606,456.833C1104.959,483.418,1126.169,509.888,1155.919,509.728" fill="rgba(152, 255, 224, 0.41)" class="triangle-float2"></path>
        <path d="M396.70759336416944 210.07460379058745L309.1544321678516 310.79299438315996 409.87282276042407 398.3461555794778 497.42598395674196 297.6277649869053z" fill="rgba(152, 255, 224, 0.41)" class="triangle-float3"></path>
        <path d="M656.151,517.136C689.161,515.818,713.706,489.963,729.654,461.031C744.943,433.294,749.977,400.929,735.826,372.594C720.025,340.955,691.496,315.035,656.151,313.853C619.004,312.611,584.595,334.372,566.682,366.939C549.373,398.407,553.349,436.481,571.729,467.336C589.65,497.421,621.161,518.533,656.151,517.136" fill="rgba(152, 255, 224, 0.41)" class="triangle-float2"></path>
        <path d="M785.265,542.179C802.027,542.76,817.678,534.284,826.729,520.164C836.602,504.761,841.237,485.036,832.025,469.228C822.861,453.503,803.46,448.607,785.265,449.012C767.886,449.399,750.207,455.922,741.98,471.235C734.088,485.925,739.811,503.217,748.496,517.453C756.741,530.966,769.444,541.631,785.265,542.179" fill="rgba(152, 255, 224, 0.41)" class="triangle-float3"></path>
    </g>
    <defs>
        <mask id="SvgjsMask1007">
            <rect width="1440" height="560" fill="#ffffff"></rect>
        </mask>
        <style>
            @keyframes float1 {
                    0%{transform: translate(0, 0)}
                    50%{transform: translate(-10px, 0)}
                    100%{transform: translate(0, 0)}
                }

                .triangle-float1 {
                    animation: float1 5s infinite;
                }

                @keyframes float2 {
                    0%{transform: translate(0, 0)}
                    50%{transform: translate(-5px, -5px)}
                    100%{transform: translate(0, 0)}
                }

                .triangle-float2 {
                    animation: float2 4s infinite;
                }

                @keyframes float3 {
                    0%{transform: translate(0, 0)}
                    50%{transform: translate(0, -10px)}
                    100%{transform: translate(0, 0)}
                }

                .triangle-float3 {
                    animation: float3 6s infinite;
                }
        </style>
    </defs>
</svg>